Genre:Action | Thriller
Language:English
IMDb:http://www.imdb.com/title/tt1990181/
Source:DVD ISO-HOKNOWS Thanks!
Encoder:Tony

Format : AVI
Format/Info : Audio Video Interleave
File size : 881 MiB
Duration : 1h 31mn
Overall bit rate : 1 352 Kbps

Video
ID : 0
Format : MPEG-4 Visual
Format profile : Advanced Simple@L5
Format settings, BVOP : 1
Format settings, QPel : No
Format settings, GMC : No warppoints
Format settings, Matrix : Default (H.263)
Codec ID : XVID
Codec ID/Hint : XviD
Duration : 1h 31mn
Bit rate : 1 149 Kbps
Width : 640 pixels
Height : 376 pixels
Display aspect ratio : 16:9
Frame rate : 29.970 fps
Color space : YUV
Chroma subsampling : 4:2:0
Bit depth : 8 bits
Scan type : Progressive
Compression mode : Lossy
Bits/(Pixel*Frame) : 0.159
Stream size : 748 MiB (85%)
Writing library : XviD 1.2.1 (UTC 2008-12-04)

Audio
ID : 1
Format : AC-3
Format/Info : Audio Coding 3
Mode extension : CM (complete main)
Codec ID : 2000
Duration : 1h 31mn
Bit rate mode : Constant
Bit rate : 192 Kbps
Channel(s) : 2 channels
Channel positions : Front: L R
Sampling rate : 48.0 KHz
Bit depth : 16 bits
Compression mode : Lossy
Stream size : 125 MiB (14%)
Alignment : Aligned on interleaves
Interleave, duration : 33 ms (1.00 video frame)
Interleave, preload duration : 512 ms


Plot:
A Secret Service Agent is held captive in the trunk of a car and endures high-speed mental and physical torture as terrorists attempt to extract needed information for their sinister plot.